#!OML:ASF H:\MichaelJackson\Top Level 1\Subject 1\Session 1\male.ASF
:FULLY-SPECIFIED
:DEGREES
808
root 2.21517 15.4221 12.9955 10.1002 -3.69893 3.40655
lowerback -3.84571 -2.79035 3.7833
upperback -2.81446 -3.86975 -4.52747
thorax -1.32726 -2.06729 -6.92607
lowerneck -7.64517 1.38841 3.89343
upperneck 1.17916 1.43356 1.45691
head 1.68383 0.773167 -0.149844
rclavicle -3.67752e-015 3.97569e-015
rhumerus 17.3383 -15.9126 3.12092
rradius 34.1523
rwrist -14.6118
rhand -4.89736 -37.0124
rfingers 7.12502
rthumb 20.892 -65.9074
lclavicle -3.67752e-015 3.97569e-015
lhumerus -56.2187 -32.3727 112.683
lradius 49.8675
lwrist 21.5056
lhand 38.8244 33.1844
lfingers 7.12502
lthumb 61.4137 45.3897
rfemur -29.8834 -8.23331 -7.29125
rtibia 52.5105
rfoot -19.6979 0.47744
rtoes -38.3647
lfemur 4.28658 1.54473 7.39377
ltibia 7.95139e-015
lfoot -27.029 -24.1084
ltoes -29.7299
809
root 2.18838 15.4204 13.0038 10.3821 -3.6425 3.3124
lowerback -3.63557 -2.59268 3.95501
upperback -2.88411 -3.60662 -4.49223
thorax -1.48695 -1.94369 -6.97119
lowerneck -7.8536 1.22097 3.78004
upperneck 0.848687 1.22302 1.3198
head 1.61083 0.65899 -0.181492
rclavicle 3.43897e-014 7.95139e-016
rhumerus 20.8649 -27.5911 -1.93141
rradius 28.901
rwrist -8.26378
rhand -15.8946 -50.6147
rfingers 7.12502
rthumb 10.3019 -80.3424
lclavicle 3.43897e-014 7.95139e-016
lhumerus -56.2478 -32.7022 112.978
lradius 49.5994
lwrist 20.2881
lhand 40.0088 31.9702
lfingers 7.12502
lthumb 62.4025 42.9538
rfemur -29.8154 -8.57029 -7.02426
rtibia 52.1537
rfoot -20.4004 0.505792
rtoes -37.6939
lfemur 3.98643 1.64136 7.64019
ltibia 1.74931e-014
lfoot -26.8754 -24.4053
ltoes -29.7207
810
root 2.1599 15.4242 13.0117 10.6746 -3.51921 3.24078
lowerback -3.36144 -2.37574 4.1109
upperback -2.97338 -3.31538 -4.48377
thorax -1.69841 -1.8084 -7.03391
lowerneck -8.05518 1.03396 3.70745
upperneck 0.468508 0.982645 1.21754
head 1.52016 0.530348 -0.210167
rclavicle -5.66039e-014 1.98785e-014
rhumerus 26.1752 -39.6992 -8.71879
rradius 25.0819
rwrist -1.68973
rhand -25.1445 -61.7063
rfingers 7.12502
rthumb 1.37196 91.6817
lclavicle -5.66039e-014 1.98785e-014
lhumerus -56.3379 -33.0125 113.24
lradius 49.466
lwrist 19.481
lhand 41.0298 31.16
lfingers 7.12502
lthumb 63.2431 41.0148
rfemur -29.7564 -8.89509 -6.73052
rtibia 51.8278
rfoot -20.9751 0.352964
rtoes -37.0642
lfemur 3.62727 1.68378 7.83605
ltibia -1.11319e-014
lfoot -26.6778 -24.6272
ltoes -29.7096
811
root 2.1302 15.4324 13.0193 10.9899 -3.35221 3.17665
lowerback -3.0681 -2.16284 4.24535
upperback -3.07536 -3.0279 -4.49586
thorax -1.93336 -1.67635 -7.1079
lowerneck -8.22586 0.858639 3.69339
upperneck 0.0326398 0.752765 1.17913
head 1.40617 0.407683 -0.228161
rclavicle 3.23025e-015 2.54444e-014
rhumerus 32.8554 -49.6512 -16.3341
rradius 22.7374
rwrist 2.80919
rhand -32.1187 -67.6502
rfingers 7.12502
rthumb -5.36332 97.5623
lclavicle 3.23025e-015 2.54444e-014
lhumerus -56.4929 -33.2505 113.457
lradius 49.4933
lwrist 19.1929
lhand 41.7256 30.935
lfingers 7.12502
lthumb 63.8092 39.9775
rfemur -29.7785 -9.19447 -6.39886
rtibia 51.601
rfoot -21.3735 0.0497594
rtoes -36.479
lfemur 3.22098 1.69941 7.99992
ltibia 1.11319e-014
lfoot -26.4603 -24.7519
ltoes -29.7279
812
root 2.10022 15.4439 13.027 11.3337 -3.16694 3.11266
lowerback -2.80386 -1.98518 4.35231
upperback -3.17847 -2.78715 -4.52288
thorax -2.1589 -1.56767 -7.18596
lowerneck -8.35927 0.734885 3.75454
upperneck -0.442294 0.584738 1.22501
head 1.27399 0.316892 -0.229902
rclavicle -2.34069e-014 -7.15625e-015
rhumerus 36.5842 -54.8747 -20.1151
rradius 21.9323
rwrist 2.29113
rhand -37.5265 -68.419
rfingers 7.12502
rthumb -10.5826 98.1325
lclavicle -2.34069e-014 -7.15625e-015
lhumerus -56.7149 -33.3833 113.622
lradius 49.6813
lwrist 19.5119
lhand 41.8915 31.3448
lfingers 7.12502
lthumb 63.9434 40.1882
rfemur -29.9333 -9.45781 -6.03501
rtibia 51.5205
rfoot -21.5691 -0.35273
rtoes -35.949
lfemur 2.78545 1.7138 8.14521
ltibia -1.59028e-014
lfoot -26.2518 -24.7815
ltoes -29.8106
813
root 2.07138 15.4574 13.0352 11.7024 -2.99294 3.04269
lowerback -2.6152 -1.87308 4.43482
upperback -3.26827 -2.63523 -4.55552
thorax -2.34064 -1.50191 -7.26067
lowerneck -8.44853 0.699814 3.89576
upperneck -0.936414 0.528502 1.34575
head 1.12978 0.282304 -0.21752
rclavicle -1.59028e-015 3.65764e-014
rhumerus 31.6542 -54.0922 -14.524
rradius 22.9799
rwrist -4.82636
rhand -41.5125 -67.0349
rfingers 7.12502
rthumb -14.4254 96.5136
lclavicle -1.59028e-015 3.65764e-014
lhumerus -56.9913 -33.388 113.718
lradius 50.0094
lwrist 20.4169
lhand 41.4397 32.3463
lfingers 7.12502
lthumb 63.5774 41.727
rfemur -30.2437 -9.67634 -5.65338
rtibia 51.6048
rfoot -21.56 -0.79271
rtoes -35.4911
lfemur 2.34846 1.75166 8.28313
ltibia -6.36111e-015
lfoot -26.0658 -24.7364
ltoes -29.9681
814
root 2.04491 15.4714 13.044 12.0843 -2.86235 2.96356
lowerback -2.5305 -1.84716 4.49882
upperback -3.3334 -2.60076 -4.58184
thorax -2.45557 -1.49228 -7.32209
lowerneck -8.49531 0.778564 4.11309
upperneck -1.41116 0.618581 1.50128
head 0.986998 0.320419 -0.20202
rclavicle -1.25234e-014 -1.35174e-014
rhumerus 25.6803 -51.0197 -7.70725
rradius 23.9597
rwrist -11.8079
rhand -43.8689 -63.9052
rfingers 7.12502
rthumb -16.695 93.2073
lclavicle -1.25234e-014 -1.35174e-014
lhumerus -57.2942 -33.2763 113.744
lradius 50.4247
lwrist 21.8249
lhand 40.3613 33.7384
lfingers 7.12502
lthumb 62.694 44.3406
rfemur -30.7063 -9.84001 -5.27509
rtibia 51.8444
rfoot -21.3726 -1.19078
rtoes -35.1357
lfemur 1.94472 1.83574 8.41974
ltibia 1.59028e-015
lfoot -25.9029 -24.642
ltoes -30.1995
815
root 2.02165 15.4848 13.0534 12.4612 -2.81085 2.88209
lowerback -2.56087 -1.90799 4.54314
upperback -3.36269 -2.68477 -4.59365
thorax -2.48588 -1.53806 -7.36037
lowerneck -8.50196 0.973759 4.39195
upperneck -1.83281 0.860104 1.63626
head 0.857335 0.43321 -0.198429
rclavicle 3.24516e-014 3.26007e-014
rhumerus 19.6309 -45.7255 -0.983752
rradius 25.4419
rwrist -17.9109
rhand -44.6694 -60.783
rfingers 7.12502
rthumb -17.4655 90.0184
lclavicle 3.24516e-014 3.26007e-014
lhumerus -57.5803 -33.0951 113.715
lradius 50.8468
lwrist 23.563
lhand 38.7991 35.2591
lfingers 7.12502
lthumb 61.3924 47.4895
rfemur -31.2985 -9.9361 -4.93259
rtibia 52.2073
rfoot -21.0541 -1.47821
rtoes -34.8873
lfemur 1.61326 1.98685 8.54649
ltibia 7.95139e-015
lfoot -25.7557 -24.5217
ltoes -30.4857
816
root 2.00189 15.4966 13.063 12.8125 -2.86689 2.80189
lowerback -2.69295 -2.03846 4.57213
upperback -3.35217 -2.86392 -4.58346
thorax -2.43102 -1.62719 -7.37001
lowerneck -8.47488 1.26585 4.70053
upperneck -2.17218 1.22923 1.69982
head 0.751521 0.608932 -0.218296
rclavicle 4.37326e-014 3.33958e-014
rhumerus 16.0521 -41.127 3.02584
rradius 26.4509
rwrist -19.7213
rhand -43.8982 -58.0026
rfingers 7.12502
rthumb -16.7232 -87.3023
lclavicle 4.37326e-014 3.33958e-014
lhumerus -57.8284 -32.8997 113.659
lradius 51.2357
lwrist 25.3879
lhand 37.0159 36.6556
lfingers 7.12502
lthumb 59.8788 50.5625
rfemur -31.9806 -9.95579 -4.64939
rtibia 52.6482
rfoot -20.6528 -1.5995
rtoes -34.7042
lfemur 1.3912 2.21817 8.65565
ltibia -9.54166e-015
lfoot -25.6211 -24.3867
ltoes -30.7944
817
root 1.98559 15.5058 13.0724 13.1208 -3.04697 2.73316
lowerback -2.89374 -2.20715 4.58788
upperback -3.30998 -3.09537 -4.55388
thorax -2.31118 -1.73901 -7.35504
lowerneck -8.4071 1.61408 4.99445
upperneck -2.42144 1.67575 1.67204
head 0.670729 0.823189 -0.26217
rclavicle -5.46658e-015 -1.74931e-014
rhumerus 14.2591 -37.8302 5.07633
rradius 26.8726
rwrist -17.5902
rhand -41.7949 -55.9794
rfingers 7.12502
rthumb -14.6976 -85.4384
lclavicle -5.46658e-015 -1.74931e-014
lhumerus -58.028 -32.7654 113.626
lradius 51.5425
lwrist 27.0404
lhand 35.299 37.7497
lfingers 7.12502
lthumb 58.3974 53.1091
rfemur -32.7049 -9.90525 -4.44704
rtibia 53.1182
rfoot -20.2301 -1.52407
rtoes -34.5637
lfemur 1.30246 2.53266 8.72994
ltibia 0
lfoot -25.493 -24.231
ltoes -31.0956
818
root 1.97218 15.5124 13.0811 13.3729 -3.35102 2.68402
lowerback -3.12188 -2.37948 4.58868
upperback -3.24306 -3.33171 -4.51258
thorax -2.1492 -1.85065 -7.32206
lowerneck -8.30434 1.97014 5.24442
upperneck -2.59047 2.13763 1.5534
head 0.612181 1.04566 -0.327026
rclavicle 4.97956e-014 4.77083e-015
rhumerus 13.5501 -35.7213 5.96294
rradius 26.8028
rwrist -13.2456
rhand -39.2584 -55.4841
rfingers 7.12502
rthumb -12.2528 -85.1051
lclavicle 4.97956e-014 4.77083e-015
lhumerus -58.1694 -32.7387 113.64
lradius 51.7561
lwrist 28.2447
lhand 33.963 38.4238
lfingers 7.12502
lthumb 57.2302 54.8164
rfemur -33.4247 -9.79244 -4.3347
rtibia 53.572
rfoot -19.8415 -1.26175
rtoes -34.4618
lfemur 1.35285 2.92131 8.75642
ltibia -3.18055e-015
lfoot -25.3593 -24.0494
ltoes -31.3461
819
root 1.96083 15.5163 13.0884 13.5701 -3.76137 2.65746
lowerback -3.33665 -2.52486 4.57983
upperback -3.1637 -3.53126 -4.47579
thorax -1.97526 -1.94284 -7.28976
lowerneck -8.18063 2.28886 5.42795
upperneck -2.69842 2.55613 1.39135
head 0.570257 1.24783 -0.396161
rclavicle -1.19271e-014 -1.82882e-014
rhumerus 13.4468 -34.4482 6.2163
rradius 26.4196
rwrist -8.82311
rhand -36.8411 -55.9487
rfingers 7.12502
rthumb -9.92132 -85.6949
lclavicle -1.19271e-014 -1.82882e-014
lhumerus -58.2604 -32.8482 113.706
lradius 51.8828
lwrist 28.8216
lhand 33.2172 38.6243
lfingers 7.12502
lthumb 56.5738 55.5599
rfemur -34.1084 -9.63005 -4.3059
rtibia 53.9741
rfoot -19.514 -0.837728
rtoes -34.3499
lfemur 1.51804 3.36864 8.73029
ltibia -6.36111e-015
lfoot -25.2151 -23.837
ltoes -31.5265
